<svg id="Layer_1" data-name="Layer 1" xmlns="http://www.w3.org/2000/svg" viewBox="0 0 1080 1080"><path d="M304.26,462.36c0-13.11,8.28-21.38,21.59-21.38,20,0,36.93,17.75,36.93,45.39v1.82c0,1.41.4,1.82,1.41,1.82.8,0,1.41-.41,1.41-1.82v-45.6c0-1.41-.61-1.82-1.41-1.82-1,0-1.41.41-1.41,1.82v1.62c0,4.43-5.45,1.61-10.29,0-7.07-2.63-15.74-5.45-25.63-5.45-28.85,0-43.78,21.38-43.78,42.17,0,47.61,71.83,40.55,71.83,79.69,0,13.52-8.88,23.21-26.64,23.21-29.66,0-43.17-31.88-43.17-52.46v-2c0-1.41-.61-1.81-1.42-1.81s-1.41.4-1.41,1.81V582c0,1.62.61,2,1.61,2,.61,0,1.22-.4,1.22-2V580.8c0-4.44,5-3,12.1-.6a87.66,87.66,0,0,0,30.87,5.85c32.08,0,50.64-20.78,50.64-43.38C378.71,494.45,304.26,501.3,304.26,462.36Z"/><path d="M469.51,550.54c-1.62,0-1.82.8-1.82,3.22,0,19.37-14.73,29.46-27.24,29.46-14.73,0-19-12.3-20-24.21a275.06,275.06,0,0,1,.2-38.74c1.21-13.32,3.43-21.79,16.34-21.79,7.67,0,12.92,2.42,12.92,6.86s-6.86,5.65-6.86,14.33c0,7.87,6.25,12.51,12.91,12.51,7.26,0,13.11-5,13.11-13.12,0-15.13-17.55-22.8-33.29-22.8-34.3,0-46.2,23.61-46.2,45.2,0,24.21,14.32,44.59,46.4,44.59,25.22,0,35.11-17.56,35.11-33.29C471.12,551.34,470.72,550.54,469.51,550.54Z"/><path d="M528.42,496.26c-31.07,0-48.22,20.38-48.22,45.2,0,24.21,18.36,44.59,48.42,44.59,31.07,0,48.43-20.38,48.43-45.2C577.05,516.64,558.48,496.26,528.42,496.26ZM546,559c-1,13.52-2.42,24.82-17.35,24.82-13.92,0-16.34-11.5-17.35-24.21a242.36,242.36,0,0,1-.2-36.32c1-13.52,2.62-24.82,17.55-24.82,13.72,0,16.34,11.5,17.35,24.21A218,218,0,0,1,546,559Z"/><path d="M619.61,462a1.75,1.75,0,0,0-1.81,1.21c-3.63,5.25-11.91,10.29-22.2,12.91a2.61,2.61,0,0,0-1.81,2.63v16h27V463.57C620.82,462.36,620.42,462,619.61,462Zm20,105.12c-1.62,0-1.41,1.21-1.41,3.23,0,8.07-4.44,12.51-9.89,12.51-6.26,0-7.47-4-7.47-12.51V502.52c0-.61.41-1.42,2-1.42h13.92c1.42,0,2-.4,2-1.21s-.4-1.21-2-1.21h-51c-1.42,0-2,.41-2,1.21s.4,1.21,2,1.21h6c1.61,0,2,.81,2,1.42v60.12c0,13.92,10.49,23.41,26.23,23.41,13.31,0,21.18-4.24,21.18-16.95C641.2,567.48,640.6,567.08,639.59,567.08Z"/><path d="M699.71,567.08c-1.61,0-1.41,1.21-1.41,3.23,0,8.07-4.44,12.51-9.88,12.51-6.26,0-7.47-4-7.47-12.51V502.52c0-.61.4-1.42,2-1.42h13.92c1.41,0,2-.4,2-1.21s-.41-1.21-2-1.21h-51c-1.41,0-2,.41-2,1.21s.4,1.21,2,1.21h6.06c1.61,0,2,.81,2,1.42v60.12c0,13.92,10.5,23.41,26.23,23.41,13.32,0,21.19-4.24,21.19-16.95C701.33,567.48,700.72,567.08,699.71,567.08ZM681,463.57c0-1.21-.4-1.61-1.21-1.61a1.77,1.77,0,0,0-1.82,1.21c-3.63,5.25-11.9,10.29-22.19,12.91a2.61,2.61,0,0,0-1.82,2.63v16h27Z"/><path d="M795.75,498.68H769.53c-1.42,0-1.82.2-1.82,1s.4,1.21,1.82,1.21h3c5.05,0,7.27,2.83,7.27,8.07,0,5.45-2.22,13.12-5.25,20.18l-12.71,31.47h-.4l-21-52.05c-2.42-6.26-1.41-7.67,1.21-7.67h5.85c1.42,0,1.82-.4,1.82-1.21s-.61-1-1.82-1H704.15c-1.41,0-1.81.2-1.81,1s.4,1.21,1.81,1.21h2c2.42,0,3.23,1.41,6.05,7.87l34.1,73.85c1.41,3.23,2.63,6,2.63,8.07V626.2c0,7.26-4.65,12.51-11.71,12.51-3.63,0-7.46-1.62-7.46-4.64,0-3.63,6.45-4.84,6.45-12.92,0-7.26-5.65-11.5-12.1-11.5-6.86,0-12.51,4.85-12.51,12.11,0,10.29,10.89,19.37,24.21,19.37,8.27,0,15.74-5,15.74-15.74v-34.7c0-2.22,1.21-5.25,2.42-8.07l23.4-54.08c2.43-5,5.25-11.9,7.47-16.54,4-8.27,5.85-11.1,10.89-11.1,1.22,0,1.62-.4,1.62-1.21S797,498.68,795.75,498.68Z"/></svg>